# xmcd
#
# Track frame offsets: 
#        150
#        11395
#        24567
#        37042
#        48037
#        58860
#        70632
#        82807
#        94465
#        107117
#        118677
#        130642
#        141070
#        153085
#        165632
#        177677
#        191962
#
# Disc length: 2698 seconds
#
# Revision: 0
# Processed by: cddbd v1.4PL0 Copyright (c) Steve Scherf et al.
# Submitted via: ExactAudioCopy v0.90a11
#
DISCID=e00a8811
DTITLE=Adolph Hofner and the Pearl Wranglers - Adolph Hofner and the P
DTITLE=earl Wranglers [CD2]
DYEAR=1900
DGENRE=
TTITLE0=The Blue Skirt Waltz
TTITLE1=Under the Double Eagle
TTITLE2=Monterrey Rose
TTITLE3=Cotton Eyed Joe
TTITLE4=El Rancho Grande
TTITLE5=Herr Schmidt
TTITLE6=Spanish Two-Step
TTITLE7=Red Wing
TTITLE8=Little Star in Heaven
TTITLE9=Ten Pretty Girls
TTITLE10=Let's Make Believe We're Sweethearts
TTITLE11=Jessie Polka
TTITLE12=You Ain't Woman Enough
TTITLE13=Kansas City
TTITLE14=You Don't Have to Be a Baby to Cry
TTITLE15=Sugar Blues
TTITLE16=Steel Guitar Rag
EXTD=
EXTT0=
EXTT1=
EXTT2=
EXTT3=
EXTT4=
EXTT5=
EXTT6=
EXTT7=
EXTT8=
EXTT9=
EXTT10=
EXTT11=
EXTT12=
EXTT13=
EXTT14=
EXTT15=
EXTT16=
PLAYORDER=
